/* XPM */
static char *_496009480706[] = {
/* columns rows colors chars-per-pixel */
"64 64 256 2 ",
"   c #2A190D",
".  c #372819",
"X  c #362B19",
"o  c #372B25",
"O  c #3B3728",
"+  c #36332C",
"@  c #472719",
"#  c #453318",
"$  c #502B18",
"%  c #4A2E24",
"&  c #462E28",
"*  c #542C26",
"=  c #443424",
"-  c #4C342B",
";  c #4C3B2C",
":  c #473728",
">  c #533B2D",
",  c #5C3D2C",
"<  c #573726",
"1  c #4B3D33",
"2  c #463B34",
"3  c #543C33",
"4  c #5B3E33",
"5  c #583B37",
"6  c #643929",
"7  c #74392C",
"8  c #633E32",
"9  c #683934",
"0  c #793E34",
"q  c #632A23",
"w  c #42181C",
"e  c #3D4430",
"r  c #5B412D",
"t  c #58462A",
"y  c #4C4334",
"u  c #494939",
"i  c #554435",
"p  c #5C4334",
"a  c #53443B",
"s  c #5C443B",
"d  c #544C3B",
"f  c #5C4C3C",
"g  c #574B35",
"h  c #485237",
"j  c #59563A",
"k  c #4D442A",
"l  c #61432D",
"z  c #68462C",
"x  c #78462B",
"c  c #78532D",
"v  c #634434",
"b  c #6B4534",
"n  c #644B34",
"m  c #6C4B34",
"M  c #63453A",
"N  c #6B453B",
"B  c #644A3C",
"V  c #6C4C3B",
"C  c #744C35",
"Z  c #7B4C35",
"A  c #72453B",
"S  c #734C3A",
"D  c #7B4D3C",
"F  c #774537",
"G  c #6D533D",
"H  c #685438",
"J  c #735336",
"K  c #7C5335",
"L  c #74533C",
"P  c #7C533C",
"I  c #755A3C",
"U  c #7B5A3E",
"Y  c #775A34",
"T  c #7A613D",
"R  c #794A1E",
"E  c #5C4D42",
"W  c #554A44",
"Q  c #4C5744",
"!  c #5B5C44",
"~  c #585746",
"^  c #51514F",
"/  c #634B44",
"(  c #6B4D42",
")  c #664645",
"_  c #734D44",
"`  c #7C4C43",
"'  c #7A4D49",
"]  c #655244",
"[  c #6C5344",
"{  c #6C5B44",
"}  c #63534A",
"|  c #6B544C",
" . c #645B4C",
".. c #6D5B4C",
"X. c #655A43",
"o. c #745543",
"O. c #7B5442",
"+. c #745A44",
"@. c #7C5A44",
"#. c #745549",
"$. c #7C554A",
"%. c #745B4C",
"&. c #7B5B4B",
"*. c #655C53",
"=. c #6C5C54",
"-. c #6B5C58",
";. c #745D53",
":. c #7C5D51",
">. c #7A5854",
",. c #7C475B",
"<. c #59634B",
"1. c #5D6754",
"2. c #7B6344",
"3. c #78624A",
"4. c #6B6355",
"5. c #6A6859",
"6. c #746254",
"7. c #7C6353",
"8. c #73635A",
"9. c #7B655B",
"0. c #7C6A5C",
"q. c #776B55",
"w. c #6A7458",
"e. c #75765B",
"r. c #65624F",
"t. c #6B6565",
"y. c #776A63",
"u. c #7D756C",
"i. c #797965",
"p. c #7B7774",
"a. c #6B736A",
"s. c #833E39",
"d. c #864C2D",
"f. c #834C35",
"g. c #834E3A",
"h. c #8A4D3D",
"j. c #854839",
"k. c #944C39",
"l. c #835335",
"z. c #83543D",
"x. c #8B543C",
"c. c #845B3D",
"v. c #8B5B3D",
"b. c #8A5936",
"n. c #92553B",
"m. c #925C3D",
"M. c #955737",
"N. c #85522F",
"B. c #8C623E",
"V. c #96653E",
"C. c #A0623D",
"Z. c #844C42",
"A. c #8C4E42",
"S. c #884C4B",
"D. c #944E43",
"F. c #835443",
"G. c #8C5542",
"H. c #845B44",
"J. c #8B5C44",
"K. c #84554A",
"L. c #835C4A",
"P. c #8B5C4B",
"I. c #89554A",
"U. c #935442",
"Y. c #935B44",
"T. c #9B5C44",
"R. c #935D4B",
"E. c #98574A",
"W. c #845D53",
"Q. c #8C5E52",
"!. c #895755",
"~. c #985B56",
"^. c #A25C4B",
"/. c #A45746",
"(. c #A75C52",
"). c #856244",
"_. c #8B6244",
"`. c #84624C",
"'. c #8C624B",
"]. c #8C6A4D",
"[. c #866A48",
"{. c #946243",
"}. c #9B6344",
"|. c #93634B",
" X c #9A644C",
".X c #956B4C",
"XX c #996949",
"oX c #846453",
"OX c #8C6453",
"+X c #836B55",
"@X c #8C6A54",
"#X c #83655A",
"$X c #8A655B",
"%X c #846A5B",
"&X c #8C6A5B",
"*X c #936454",
"=X c #9C6453",
"-X c #946B54",
";X c #9A6B54",
":X c #93645B",
">X c #9B635A",
",X c #946C5B",
"<X c #9C6C5B",
"1X c #897259",
"2X c #95715C",
"3X c #9B725D",
"4X c #987457",
"5X c #96734D",
"6X c #A3664C",
"7X c #A4635B",
"8X c #A66958",
"9X c #A3725A",
"0X c #B16B5F",
"qX c #836C62",
"wX c #8B6D63",
"eX c #876864",
"rX c #966C64",
"tX c #8B7265",
"yX c #83736A",
"uX c #8C7B6D",
"iX c #867568",
"pX c #947363",
"aX c #9C7362",
"sX c #93746B",
"dX c #997A69",
"fX c #877C74",
"gX c #947C72",
"hX c #9B7C76",
"jX c #976D71",
"kX c #A86B64",
"lX c #B46B63",
"zX c #B26F69",
"xX c #A77868",
"cX c #A57C75",
"vX c #B6746C",
"bX c #788873",
"nX c #8A8579",
"mX c #948273",
"MX c #9C8A7A",
"NX c #978579",
"BX c #8B856A",
"VX c #A5836C",
"CX c #A78779",
"ZX c #B38564",
"AX c #748E81",
"SX c #9D8B83",
"DX c #968B87",
"FX c #9C9589",
"GX c #898C88",
"HX c #A88B83",
"JX c #A5988A",
"KX c #A89A94",
"LX c #A3A79A",
"PX c #B3ACAA",
"IX c #9CAD9B",
"UX c #C39E96",
/* pixels */
"gXdXdXdX4X@X&XdX-X2X`.,X2X+XsX#XP.'.OX*X*X;X9X9X0.#XtXoXoXsX%XwXP.L.P.P.*XOX'.L.P.'.|.<X3XaX3X4XOXNXSXSX7.:.%.qXoX&X$XL.x.H.%.*.",
"7.&.2.'.L.@.@.`.&.].+.`.oX+.@X3.@.L.L.P.P.'.|.,X%.N o.L.`.OX$.W.P.|.*X*X-X*X-XOX:X*XOXP.'.@X@XOX<X&./ wXOXH.o.W._ L.#X*XXX-X&.^ ",
"_ O.H.H.J.'.L.P J I m J I J @.J @.L.).J.'._.].|.>.v C F.|.=XG.=Xx.J.'.{._.H._._.,X*XP.F.L.L.L.L.D o.> #.J.J..X'.J.'.P.g.f.x.n O ",
"v o.H.F.J.'.L.P 2.L.@.H.c._._.v.P F.c.F.z.x.v.v._ 8 C g.G.Y.x.=XY.}.XXXX{.{.{.{.T.R.|.|.|.|.|.J.J.,X( L.J.m.6Xl.E.|.I.z.x.{.@.i ",
"v O.L.J.H.P.L.F.P D D Z g.x.f.x.H.G.P.Y.G.J.Y.E.8 N L.z.x.J.G. XU.T.E.U.Y.U.Y.J.n.m.Y.V.}.Y.m.V.-XV % _ *Xl.Y.H.x F.K.F.J.'.L ; ",
"M V @.O.L L O.P H.D F.C D H.D J.K.K.K.F.F.F.G.J.> M :.@.P K.D D ~.R.P.P.I.P.I.F.Y.Y.J.J.v.c.H.J.oX( ~ E @.D L.oXH.&.;.%.@.P B a ",
"/ n v v l 8 l B v < , < < p < p f M B B B M V H E i B n V +.M s N N N B M i v s < 4 4 , , i i f [ *.p.^ 1 ; @ o t ; 2 a s v ] 5.",
"y.;...#.o.o.[ ;.7.X.6.X. .8. .5.*. .=... .......DX4.B } 8.y.=.y.u.fXfXfXy.y.y.yXt.u.fXDXDXDXDXFXHXyXPXPXPXKXu.GXqXu.p.DXgXwXfXDX",
"O.:X*X|.;X*Xc.'.I |.E.OXyX5.L T.o.S O.H.L.`.&.o.| ;.....oXoXW.OX#.3.+X8 Q.jX/ 4.9.#X;.+...3.0.%X$XW.dX, eX#Xo.OX@XJ O.L.o.O.7.+.",
"$.P.z.f.Y. X|.;XJ.T.D.R.} : A k.O.F.D Z f.D Z.O.O.&.O.O.L.P.P.=XH.U J.F.R.:X% s 0 h.I.R.R.Y.x.f.c N.5X$ .X5Xb.B.|.x.l.G.J.J.J.c.",
"+.oX].].4X].Z z H.l.d.pX..2 &Xx.@.@.U K K C L O.U U I J U @.L.'._.Y C c.x.@.. u J.J.x.K c x.{.Y..Xc.].l @X).m Y P L.J.@.H.P O.'.",
"`.'.'.J. X;X|.I.|.l.h.;X/ & _ D P P F.x.l.P S C l.c.P S @.@.$.OX|.J.J '.x.Y.< H C J J z J I K l.L.F.!.< ' W.I.P.h.|.G.z.P.J.z._.",
"E.E.E.^.E.^.(.E.U.n. XG.N 9 q :Xz.h.h.x.Y.v.A.D s.S.F 0 _ ' ' !.~.~.F.~.Z.S.* w A ` A A A g.Z.F f.=X8X7 x =X8Xn./.M.d.x V.}.b.d.",
"r p J O.m p , % > ; g k  .=.. g : # . # # < : : - - 2 & O y 2 a & W 2 2 - | u + s 3 - - - p v b p n ] f a ; > r 3 ) E 2 2 2 3 s ",
"e.q.e.q.q.i.nXbXt.w.w.<.nXGXu g ! ! j j j j ! ! q.y.i.w.e.e.i.BXLXIXAXbXw.fXi.1.~ r.5.e.i.i.6.] 4.W ~ nXu.~ r.yXt.fXGXa.^ 1.a.p.",
":X!.R.,XQ.wXsX;.,.jX$X$.!.~.R.xX:X>XrXkX8X8X:X~.Q.rX<X,X<X3X3XxXjXwX%X&.K.!.:X_ :.;.+.[ &.L.P.I.n.}.}.|.x.Y. Xd.8XR.J.U J _.XXx ",
"o.$.L.o.&XsXB 3 H.` OX@XO.o.`.`.&.$.#XoX`.`.&.@XoX#X&X,XOXaXP.-XE - #XW.N $.] +.[ 7.%.V o.F.O.F.[ W.~.D @.+X).x.6X=X3 3 o.L.OXo.",
"OXZ D Z F.@.p / P.Z P H.P J.OX@.L.H.'.P.P.H.H.).O.O.L.'.|.;X|._.OX* D D 0 R.x.c.L O.J J H.F.c.|.F.E./.D.J._.n./.d.J._ %.o.x z.J.",
"|.K l.L S V #   C C K L L J._.Z z.F.z.H.U B.c.c.OX'.H.H.|.|.9X|.j ; +.o.b K J J ).H.P x.v.Z x v.J P z.l.Y J Y b.k.J.V S z.Z x.Y.",
"S C S S +.sX8.. t L oXoXL.L.L.O.V O.m O.O.`.`.L.@.L.`.L.2XL.@XP % @ S ' F z.c.J.O.K Z P _.J.v.;Xc.J.Y.Y.x.K J.Y.c.@.g i L c.F.O.",
"/ B 4 & = ~ *.+ . i / B s M v 4 f ] - ( B ( [ M | ( B % 3 - v r ;.E 9 5 4 8 8 8 > p < % > r < < 6 < < z 6 $ v % * | y.} v V N ) ",
"} | ] ;.| 8.nXDX;.0.;...9.%X9.;.;.8.- 6.[ ( B s %.[ ;.[ 9.hXJXPXKXFXDXfXyX0.4.6.sXhXtX%.%.%.G v %...H q.+.V 5.Q r y.nX-.B { ( y.",
"| eX:.&X#Xo.>.sX,XpX#X&.%X&XoX$XmXgXv dX&X@XQ.L.@.+.VXdXpXCX..;.G.>XxXxXxXrXrXxXaXsXpXOXpX2X,X1XkXkX-XZX0X7XHX..*X%XiX%.2._.o.qX",
"M $XL D F.P H.O.R.;X|.J.J.P L @X@X`.$ ,X|.J.G.J._.x ].H.J dX< L {. Xc.'.-XOX$X@XOXL.O.H.-X'.).-X~..XU 5X}. XxXy v.C 2.@._.Y 6 #.",
"$.O.' O.O.&.L.`.R.<X:XK.>X` F.H.@.1X# 3.c.V.B.Y @.).).`.J VX@ oXL.K.Q.$XaX,XOX@.W.L.H.H.&.$X&X:..X@.7.`.V.V.BX^ #.&.o.O.I.z.D H.",
"O.O.P O.U @.2.H.].@X@Xm oXm 2.2.F.Q.* P.x.k.N.Y.P F.z.G.D aX$ #.P.J.H.P.'.'._.).P S O.J.c.P.OXoXg.` K.h./.}.2X2 g +.@.O.L.L.L K ",
"@.+.I I @.T T T |.=X|.D J.P J._.>XQ.* !.~.T.G.P.C S F.'.L.pXE 5 D D L P S D P L @.J H._.P C C S D L.&.O..X;XtXW t { +.G O.`.U J ",
"A.A.A.G.A.k.U.D.J.=XP.P.S OXz.P.6. .o E +.@.G } { 3.3.{ f E u X p V o.@.+.o.#.%.f < , V m m G o.: f B [ q.X.~ h q j.A.D.E.D.s.7 ",
"e h h h h h h h f g  .y y u d j g 4.~ ~ f H X.5.n H H g g  .nX5.E } ..%.| } } } iX| ] &.&.&.7.0.mXmX3.6.=.*.yXJX<.Q e O e e Q ^ ",
"0.%X$XwX$X$X:X,XtX%.SXa r.} qX0.P %X0.%.@.oXoX#XP.`.|.|.P F.&XO.) | 9.wXhXHXKXPXKXgXqXwX%X+X&XoX*X8X6XcXeX| oXaXtXsXsXcXcXrXW.eX",
"&.&.`.'.P.P.P.|.>XD xX< v N P.F.z.O._ A F.|.F.$.S S G.|.x.x.f.7 Q.L.G.H.I.%.-.-.eX&.H.J.J.{.}.J.U.6X^.kX) ) O.M.'.-X,X3XaX,XW.W.",
"I U L.B.J.v.v.{.J.z.&X{ # @.m K x C o._ z.Z S ;.3.L U c.K V.c c.n.x.M.n.J.F.B 1 J.c.m.M.M.V.V.M.H.6XV.-X- d I R c .X{.v.J.|.).U ",
"_._._.v.B.v.B.V.b.M.4XG l x.k.l.V L m J C Z R.A.x.g.f.f.g.l.g.F.N.}.d.z |.].l t K z.v.{.m.m.m.v./.B.M.9Xj = 6 Y V.{.}.v.b.x.v.b.",
"O.@.@.H.J._.'.|.H J 2.k O M V ] ( V v o.@.O.P.S S O.J P F F.P D z.z.z.*X:X6 < tXO.H.P.Y.R.J.J.J.E.K J.>Xu.y.9 L.F.R.*X*X|.P.F.D ",
"$.&.L.W.#XQ.$XQ.7.Z.!.} f ` S.#.V B , L O.C L V F D 7 9 q D j.D v B N o._ s E ) _ _ ' S.` Z.$.F.:X@.*X' p.y.w > W.L.>.$._ _ ' _ ",
"<.<.<. .<.<.! ! <.] ;.w.1.....<.%.%.B o.+.H +.%.w.5.w.w.w.w.w.w.<.<.<.Q ^ bXbXh Q <.! ! ! ! ! <.<.<.e.<.bXAXa.nXi.a.w.1.<.5.w.w.",
"kX7X7X7X8X(.(.^.<X7X0XvXxXzXkX@XiXmXdXxXdX2XdXCX,XOXCXHXUXrXaX,X=XU.>X8X~.7XzX7XzXzXlXlXlXlXlXlXkXkXvX8XvXxXvXvX~.7X7X7X~.~.^.E.",
"L K K @.2._._._.2._.c.[.2._.'.j > 0.oX`.OXO.&.+X|.L.pXpXmXo.'.'.).H 2.1X2.I [.@X2.2.`._._._._.].1X.XV.5X2X7.e.H I @.U L I I P L ",
"P L L z.H._.J.H.J.^.M.T.{.E.=Xv # 7.`.F.'.P.L.`.^.6XE.S.` A.U.^.'.U K @.@.)._.c.`.'.'.|..X|..X.X1X^.}.5X>X@Xj m c.z.L x C J H.L.",
"P.F.` z.F.J.G.x.+.=XY.|.'.|.oXk . +.D C x.x.H.H.c 1X2.q.t q.Y c ~.G.z.L.`.c.H.|.@.H.P.P.R.J.'.'.7.(.8XXX~.,XO O.S D F.F.D F.F.D ",
"C @.c.J K J K '.k.R.F.P.v.N.,Xi * L o.H.b L Z {.T.v._.@Xz I P L.x.x.B.{.n.6Xf.4Xd.m.H.K =X7Xc..X{.{.8XR.R.P.l B m J @.J.H.c.x.c.",
"S D S D F.S.S D F.$.#.&.`.'.>.a - f M B M V M L S b V I +.{ o.S OX@.@.@XF.Q.S V |.`.+.( >.K.A +.2.L.,XQ.$X#Xs f S _ D ` h.Z.F.Z.",
"g f d d Q W y u ) | 5.*.] %.E -.=.=.=.E | f 3 ; 5 3 / g 8.B M p / f f =.> 8 %.} #./ E  .| | ;.r.6.=.| ) ) | / -.W y 2 ; y i i y ",
"-XaXpX%X7.>.;.u.fXDXp.p.1XtXiXKXNXNXNXuXHXmXgXtX%XgXNXuXMX&X+X3XhXSXu.5.} } uXiXtXiXfXSXgXHXKXu.-.y.yXsXhXsXy.%X%X#XoXW.oX+X+X7.",
"Y.5X-X'.H.o.o.#X+X0.o E +.O.K.#X`.`.@X@.2X@X@XoX$XaX@X,X@X'.c.;XxXCXf O ] o.:.o.`.%X%X&X@.&XhXy 5 [ #.W.oXF.O.O.H.L.Q.*X'.'.L.).",
"[.].[.[.1X[.+.2.).%.  } L C l.z.J.{.|.x.'._.).'..X|.P {.{.9XY.XXG.2Xg . [ $.H.H.O.].2.@.Z Q.dXk P &.b C C C H.{.G U ].].].).).[.",
"x.T.Y.R.8XXXJ.J.OX#.& 9.S l.z.R.l.{.J.J.P.;X<XxX;XJ.c.|.|.,X-XP.Y.aX7.X > N A Z S L.S H.F.P.aXp z L.O.P.'.P z.Z Z D h.G.U.T.Y.T.",
"o.+XoXoX`.@.`.,XCX) o =.V ,Xc.*X|.<XP.'.F.OXH.#X-XL.9X,X*X@.$X&.=XL...  - :.OXF.O.&.m '.P.A %.& A oXO.L.L.V O.D { G V L L.'.@X].",
":.$.I.@XP |.O.z.CX[ . % #.) 0 ~.I._ N A D _ _ F.b Q.@XJ. XXXZ T %X9.s o 3 >.L.9 B [ +.o.M 3 2 u , n o.&.&.&.O._ o.S 6 @ < p * ( ",
"2 y i i # g ; f O q.y.y O 3 1 > ~ Q h u u j ~ h W a y E | & : ~ & ] 9.} - % , V ; , v V ( %.y.yXp g i , t r n V O 2 u j r. .+ 2 ",
"6.yXqXuXmXJXnXLX..NXFXfXyXfXmXNXmXMXNXuXuXSXMXmXHXnXGXSXSX-.GXGX0.q.8.0.y.7.3.`.+.o.@.o.o.o.+.7.1X7.3.+.{ %.q.1XnX=.6.9.eXgXsXhX",
"Q.<XQ.@XjXcX| ;.xX*XOX<XaXQ.Q.aX=XkX>X=X>XkXxX7X*X<X3X*X<XL MX~ +Xo.V G o.@.P L.o.&.L.@.@.O.@.L.+.+.o.o.G [ { +.qX5 _ $XP.=X>X>X",
"Y.6Xm.T. X:X8 V D.T.T.6XT.Y.J.m.{.v.J.J.{.{.{.{.h.}.6XV.}.x.CXX A F.OXP.F.F.F.P S S O.P O.P H.J.D ` Z.L.F.K.O.@.X.k { 4X).J.B.c.",
"K {._.{.).].G 1XN.N.b.V.b.{.5X_._.c.b.B._.c.c._.:XL.'.'.;X'.gXu 9 g.Z.D D G.F.7 H.c.P S C m C D F F D S D D O.F...< K J.x d.x.v.",
"J.J._._.J L.n %.xXv.l._.v.J._.U Y.J.Y.J.v.J.Y.|.W.o.#.P.Q.Q.y.^ A W.P.Z x D L.&.f.Z C S N A S ` P O.O.z.O.F.L.P.o.b P.E.U.E.U.x.",
"I.D D P.P.xXL._ I.G.E.T.n. X<XF.O.`.`.L S L.W.O.W.` J.m.n.;X7.~ ( +.P F m C I o.N.f.z.o.o.V V b L O.@.O.O.F.F.F.~ y B V b $.#.o.",
"W 2  . .2 ~ fX-.= - 1 a a d W E d 5.2 } 4 < ~ ^ e d : o r.o FXGXy & - Q + 3 ) O % - 5 5 5 3 3 & i 3 3 4 M p i 1 ^ W O   y + o 3 ",
"y.0.gXMXtXNXKXmX%X#XoX0.0.%XiXBXtXuX;.qX&.oXy.t.M ;.&.O.dX/ JXSXiXeXCXFXnXsXdXmX7.%.;.:.;.9.0.=.o.o.+.&.&.&.o.+.fXuXtX7.DXy.6.&.",
"G m o.L.@.L.oX@.@X@XOX`.`.OX,X2X,XOX`.OX;XZX..y 8 F.P.G.=Xg.*X|.L F.xX] { L.P.&.&.O.o.+.o.7.oX+.`.'.'.OX*X-X@X'.tXOX-X2XpX. M U ",
"F.F.x.v.Y.J.J.'.F.G.J.J.J.F.c.H.|.J.*XR.}.ZXr X m @._.l.l.c.K c.|.x.<X# B P.G.c.K Z l.P P H.H.S c.H.G.J.R.P.P.J.:X=X8X9X@X  o.U ",
"g.x.x.x.m.x.f.J.v.J.J.J.v.x.x.c.Y.J.xX|.N.9Xl a U `.'.l.l.V.l.Y.XXh.,X< G D 7 N.g.f.U.G.x.G.J.g.z.z.z.c.J.J.J.H.F x.}.{.L.% oXz ",
"P P.|.|. XJ.F.P.L._.H.F.P F.J.P.J.O.@X|.{.9Xr O h.U.Y.n.m.T.h.U.c. XxXy k S Y.Y G.h.G.g.F D K.F.L.H.H.J.J.'.'.).'.J..XxX%.o G 2.",
"V O.H.@.@.L.@.V &.+.o._ _ O.$.L.@.] [ oX;XVXa + g.G.H.x.|.O.F.K.m ).wXu + N P.m @.O.o._ v ( o.N O.L S O.P O.+.o.#XL L 2X} o : ;.",
"i p l < < V B > > 3 i p v M 8 M i a a n < z : W v g t t H : i i G $ 1 p.1.- 8 H n i i i i a y o p r , , 8 l r r f M l %.-.GX*.1 "
};
